<?xml version="1.0" encoding="UTF-8"?>
<!DOCTYPE svg PUBLIC "-//W3C//DTD SVG 1.1//EN" "http://www.w3.org/Graphics/SVG/1.1/DTD/svg11.dtd">
<!-- Creator: CorelDRAW 2020 (64-Bit) -->
<svg xmlns="http://www.w3.org/2000/svg" xml:space="preserve" width="32.0874mm" height="25mm" version="1.1" style="shape-rendering:geometricPrecision; text-rendering:geometricPrecision; image-rendering:optimizeQuality; fill-rule:evenodd; clip-rule:evenodd"
viewBox="0 0 150.65 117.38"
 xmlns:xlink="http://www.w3.org/1999/xlink"
 xmlns:xodm="http://www.corel.com/coreldraw/odm/2003">
 <defs>
  <style type="text/css">
   <![CDATA[
    .fil0 {fill:white}
   ]]>
  </style>
 </defs>
 <g id="Layer_x0020_1">
  <metadata id="CorelCorpID_0Corel-Layer"/>
  <g id="_2309977629072">
   <path class="fil0" d="M31.79 59.71c0.23,-1.19 -0.09,-1.81 0.57,-2.77 1.24,-1.79 5.05,-2.22 5.35,1.91 0.1,1.34 0.64,0.8 2.2,1.1 2.48,0.47 4.72,1.65 5.81,3.85 2.34,4.75 -2.67,7.67 -4.7,3.91 -0.47,-0.87 -0.41,-1.54 -1.46,-1.92 -1.01,-0.36 -7.53,-0.68 -8.92,0.29 -1.2,0.84 -2.18,2.77 -1.06,4.56 2.56,4.09 8.94,-1.28 14.59,4.98 2.08,2.3 2.98,6.51 1.25,9.96 -2.55,5.07 -7.08,4.81 -7.54,5.32 -0.44,0.48 0.18,4.02 -3.2,3.91 -3.09,-0.1 -2.77,-3.46 -2.89,-4.04 -12.53,-1.34 -8.42,-12.26 -4.57,-9.29 1.07,0.82 1.35,2.43 2.71,3.03 1.37,0.61 3.53,0.45 5.14,0.45 2.06,0 3.53,0.07 4.59,-1.19 0.91,-1.07 1.1,-2.92 0.16,-4.21 -2.62,-3.61 -11.67,1.91 -15.72,-6.81 -2.39,-5.16 0.14,-11.81 7.69,-13.06zm-31.79 31.14c0,8.13 3.19,20.16 6.22,26.44l1.97 0.03c12.98,-0.18 26.95,0.04 40.11,-0.01l-0.24 -16.58c0,-5.89 2.67,-9.56 8.94,-9.56l12.55 -0.02c0.52,-2.94 -1.22,-13.98 -1.85,-17.13 -2.62,-13.07 -7.93,-26 -18.1,-34.46 -0.94,-0.78 -1.67,-1.74 -3.27,-1.74l-22.92 -0c-1.67,0 -2.29,0.82 -3.23,1.59 -5.97,4.84 -10.85,12.22 -13.8,19.58 -3.48,8.66 -6.37,21.26 -6.37,31.86z"/>
   <path class="fil0" d="M136.15 31.84c-0.48,0.19 -11.06,10.71 -11.4,11.38 -1.66,3.23 -1.23,3.78 -4.13,7.33 -5.71,6.99 -14.77,10.7 -24.48,8.67 -17.55,-3.68 -26.32,-25.17 -13.55,-40.57 7.4,-8.91 21.43,-11.13 31.35,-5.09l3.51 2.41c0.95,-0.6 2.71,-2.55 3.63,-3.48 0.77,-0.77 3.13,-2.86 3.46,-3.65 -6.27,-5.12 -12.65,-8.36 -21.52,-8.79 -16.42,-0.79 -31.32,10.13 -35.4,25.76 -4.4,16.85 3.65,33 18.42,40.55 21.91,11.2 52.06,-4.86 50.1,-34.5z"/>
   <path class="fil0" d="M133.09 11.82l-24.9 24.84c-1.25,-1.06 -2.48,-2.42 -3.67,-3.61 -1.28,-1.27 -2.39,-2.39 -3.66,-3.66 -1.27,-1.28 -2.39,-2.37 -3.65,-3.66 -1.05,-1.07 -2.91,-2.56 -5.35,-1.38 -1.3,0.63 -6.12,5.82 -7.48,7.15 -1.79,1.76 -2.14,1.86 -1.69,5.59 0.19,1.56 0.94,4.68 1.75,5.69 1.8,-1.27 8.04,-8.52 9.29,-8.98l10.8 10.68c2.52,2.55 4.34,2.94 7.18,0.11l24.33 -24.28c0.9,-0.89 1.96,-1.85 2.72,-2.76 1.67,0.65 2.94,3.88 5.37,3.98 3.11,0.12 3.24,-2.9 3.82,-5.5 0.58,-2.64 1.09,-5.01 1.68,-7.63 0.54,-2.44 1.92,-5.91 0.18,-7.6 -1.64,-1.59 -5.04,-0.28 -7.34,0.24 -2.58,0.58 -5.07,1.12 -7.62,1.68 -2.56,0.56 -5.56,0.66 -5.67,3.57 -0.1,2.67 3.11,3.77 3.93,5.52z"/>
   <path class="fil0" d="M36.02 8.86c-2.54,0.27 -14.46,-0.53 -15.48,0.5 -0.99,0.99 0.67,4.39 1.15,5.76 0.67,1.92 1.4,4 2.11,5.96l22.91 0.02c0.83,-1.91 6,-13.53 5.51,-14.75 -0.46,-1.17 -2.69,-0.81 -4.12,-0.81 -11.28,0 -10.93,-1.17 -12.08,3.31z"/>
   <path class="fil0" d="M142.75 99.76l-0.31 -0.17 -6.47 -14.5 -0.09 0.02c-0.35,-1.05 -0.98,-2.25 -1.46,-3.31 -2.66,-5.82 -2.02,-5.31 -7.84,-2.77l-9.85 4.38c-0.85,0.38 -2.7,0.86 -3.03,1.51l-0.41 0.02c-0.69,1.92 -0.28,1.89 0.39,3.55 0.95,0.08 1.2,-0.3 1.46,0.79 0.1,0.4 -0.01,1.51 0.01,1.98 0.03,0.83 0.7,2.08 1.06,2.83 0.79,1.61 1.85,3.8 2.47,5.56l0.26 0.08c0.07,0.96 3.99,9.11 4.74,10.8 5.24,11.82 21.74,7 20.85,-4.85 -0.25,-3.3 -1.91,-4.92 -1.78,-5.91z"/>
   <path class="fil0" d="M22.16 25.3c-3.9,1.23 -2.88,5.68 -2.23,6.79 1.4,2.37 4.93,1.71 8.21,1.71 2.87,0 18.38,0.3 19.82,-0.18 3.02,-1.02 2.85,-5.23 1.9,-6.77 -1.46,-2.37 -4.69,-1.72 -8.09,-1.72 -3.01,0 -18.02,-0.33 -19.61,0.17z"/>
   <path class="fil0" d="M83.64 109.35c-1.19,0.44 -0.86,1.85 -0.86,3.24 0,0.89 -0.14,3.39 0.16,4.07 0.42,0.95 2.07,0.67 3.29,0.67 3.4,-0 19.68,0.18 20.44,-0.11 1.03,-0.4 0.77,-2.02 0.77,-3.24 -0.01,-5.6 1.13,-4.73 -7.57,-4.73 -2.06,0 -15.47,-0.17 -16.22,0.11z"/>
   <path class="fil0" d="M56.6 105.21l19.76 0c2.8,0 2.41,-0.63 2.4,-3.29 -0.01,-6.16 1.42,-4.79 -12.48,-4.79 -14.02,0 -12.15,-1.22 -12.18,4.99 -0.01,2.65 -0.25,3.1 2.5,3.1z"/>
   <path class="fil0" d="M78.76 115.36c0,-7.08 0.75,-6.12 -5.56,-6.12l-15.41 0c-4.14,-0 -3.68,-0.13 -3.68,3.94 0,4.99 -1.52,4.14 11.19,4.14l11.47 0.01c1.6,-0 1.99,-0.34 1.99,-1.98z"/>
   <path class="fil0" d="M107.34 104.28c0.11,-1.64 0.61,-6.43 -0.68,-6.96 -0.63,-0.26 -6.42,-0.12 -7.58,-0.12 -4.79,0 -10.7,-0.33 -15.35,0.03 -1.33,0.42 -0.94,1.85 -0.94,3.3 0.01,5.44 -0.85,4.68 6.02,4.68l13.04 0c1.71,0 4.95,0.58 5.5,-0.93z"/>
   <path class="fil0" d="M83.53 93.01l11.56 0.07c1.74,0.08 10.87,0.28 11.87,-0.25 0.7,-0.81 0.48,-2.53 0.46,-3.75 -0.02,-1.54 0.34,-2.64 -0.53,-3.94 -2.06,-0.39 -16.22,-0.15 -20.46,-0.15 -0.85,-0 -1.81,-0.15 -2.6,0.17 -0.03,0.01 -0.09,0.04 -0.13,0.07 -1.33,0.24 -0.91,2.34 -0.91,3.85 -0,1.75 -0.37,2.99 0.75,3.93z"/>
   <path class="fil0" d="M110.73 72.28c0.11,0.92 2.27,5.35 2.82,6.46l11.58 -5.09 -2.84 -6.34c-2.41,1.03 -3,2.14 -8.36,4 -1.1,0.38 -2.21,0.58 -3.2,0.97z"/>
  </g>
 </g>
</svg>
