<?xml version="1.0" encoding="UTF-8"?>
<!DOCTYPE svg PUBLIC "-//W3C//DTD SVG 1.1//EN" "http://www.w3.org/Graphics/SVG/1.1/DTD/svg11.dtd">
<!-- Creator: CorelDRAW 2020 (64-Bit) -->
<svg xmlns="http://www.w3.org/2000/svg" xml:space="preserve" width="28.38mm" height="30mm" version="1.1" style="shape-rendering:geometricPrecision; text-rendering:geometricPrecision; image-rendering:optimizeQuality; fill-rule:evenodd; clip-rule:evenodd"
viewBox="0 0 140.44 148.45"
 xmlns:xlink="http://www.w3.org/1999/xlink"
 xmlns:xodm="http://www.corel.com/coreldraw/odm/2003">
 <defs>
  <style type="text/css">
   <![CDATA[
    .fil0 {fill:white}
   ]]>
  </style>
 </defs>
 <g id="Layer_x0020_1">
  <metadata id="CorelCorpID_0Corel-Layer"/>
  <path class="fil0" d="M27.31 147.52l0 0.34c-0.13,0.07 -0.73,0.72 -0.91,0.16 -0.19,-0.59 0.76,-0.51 0.91,-0.51zm48.5 -109.17c0.26,5.94 0.86,12.15 1.16,18.12 0.02,0.42 -0,0.96 0.19,1.29 0.55,-1.45 1.24,-2.95 1.86,-4.43l3.79 -8.9c0.32,-0.77 0.63,-1.48 0.96,-2.24 0.3,-0.69 0.58,-1.68 1.01,-2.22 0.68,0.14 6.59,2.19 6.92,2.43 -0.46,3.04 -1.37,4.33 -0.53,8.69 0.26,1.34 0.63,2.58 1.13,3.78 0.26,0.62 0.49,1.13 0.8,1.71 0.25,0.47 0.78,1.27 0.89,1.59 0.12,0.09 0.13,-0.13 0.23,0.27 0.12,0.47 -0.1,0.4 -0.11,0.41l-0.09 0.59c-0.04,0.42 0.06,0.4 -0.16,0.53 0.04,0.47 -0.46,3.64 -0.56,4.47 -0.48,4.18 -1.19,9.61 -1.5,13.56 -0.55,-0.09 -16.9,-10.44 -19.81,-12.13l-2.59 4.12c-0.35,0.55 -2.33,3.94 -2.65,4.16 -0.02,-2.82 0.54,-5.77 -0.83,-7.19 -0.75,-0.78 -1.08,-0.48 -1.84,-0.91 0.42,-2.02 3.51,-10.78 3.5,-11.6l-4.75 0c-1.07,-1.97 -0.29,-4.89 -5.48,-9.88 -0.49,-0.47 -0.81,-0.58 -1.28,-1.03 0.45,-0.91 3.26,-1.76 4.05,-2.03 1.1,-0.37 3.68,-1.42 4.66,-1.54l7.58 17.87 1.31 -19.57c0.65,-0.01 1.53,-0.14 2.12,0.09zm-9.87 47.64c0.08,1.47 0.39,2.09 1.27,2.81 0.74,0.61 1.49,1.19 2.21,1.78 0.67,0.55 1.46,1.38 2.84,1.15 1.18,-0.2 1.62,-1 2.2,-1.7 0.67,-0.8 1.16,-1.42 1.79,-2.21 2.07,-2.63 -0.05,-3.84 -1.37,-4.98l-2.21 -1.69c0.17,-0.6 0.86,-1.22 1.26,-1.72 0.35,-0.44 0.97,-1.1 0.46,-1.92 -0.33,-0.53 -1.19,-0.85 -1.84,-0.37 -0.37,0.27 -3.71,4.52 -4.33,5.28 -0.44,0.55 -1.57,1.78 -1.78,2.32 -0.12,0.13 0.03,-0.1 -0.16,0.19 -0.06,0.09 -0.12,0.2 -0.16,0.32 -0.07,0.21 -0.11,0.5 -0.17,0.74zm-26.52 -30l26.2 -0.06 -3.24 10.56c-0.55,1.32 -1.13,0.12 -1.16,3.53 -2.09,0.18 -4.91,-0.61 -6.47,1.98 -0.4,0.67 -0.6,1.36 -0.62,2.27 -0.12,4.98 -0.41,6.7 3.31,8.14l-1.95 6.24c-0.27,0.67 -0.32,1.5 -0.65,2.12 -0.06,0.25 -0.07,0.38 -0.12,0.63 -0.02,0.11 -0.02,0.15 -0.06,0.26 -0.16,0.37 -0.03,0.07 -0.15,0.23 -0.19,1.03 -0.8,2.71 -1.13,3.75 -0.39,1.24 -0.78,2.58 -1.18,3.75l-26.18 0.01 1.89 -6.28c1.14,0.04 2.74,0.67 4.49,-1.3 0.22,-0.25 0.38,-0.5 0.66,-0.83l2.04 -2.53c0.99,-1.36 1.26,-2.99 0.35,-4.61 -0.44,-0.78 -2.51,-2.54 -3.25,-2.91 0.22,-0.82 1.38,-1.26 1.29,-2.9 -0.04,-0.65 -0.45,-1.13 -0.41,-1.57 0.02,-0.25 0.38,-1.25 0.47,-1.57 0.62,-2.15 1.29,-4.17 1.94,-6.28l3.94 -12.64zm39.76 -55.18c6.15,2.33 9.72,8.38 10.82,14.92 -0.87,0.21 -29.08,0.08 -30.49,0.06 0.59,-3.49 1.68,-6.37 3.38,-8.88 1.25,-1.83 1.25,-1.68 2.52,-2.97 0.13,-0.13 0.2,-0.23 0.33,-0.36 0.56,-0.52 2.75,-2.11 3.76,-2.37l3.88 10.86c0.45,-0.14 1.02,-0.29 1.35,-0.53 -0.6,-2.22 -3.7,-9.87 -3.81,-10.99l2.65 -0.55 2.58 0c0.55,0.28 2.22,0.5 3.02,0.8zm-12.62 16.52l22.43 -0.04c0.95,4.24 -1.17,9.48 -4.04,12.37 -4.26,4.3 -10.97,5.44 -16.54,2.38 -0.34,-0.19 -1.45,-0.9 -1.65,-1.11 -0.44,-0.47 -0.22,-1.92 -0.21,-2.66 -1.31,-0.34 -1.62,0.15 -2.67,-0.85 -1.3,-1.23 -1.45,-3.62 -0.04,-5.05 0.75,-0.76 1.38,-0.83 2.72,-0.85l0 -4.19zm-5.21 7.59c0.03,2.38 1.58,4.31 3.72,4.66l0 2.71c-1.15,-0.23 -3.57,-1.34 -3.99,-1.99 -0.53,-0.19 -0.41,-0.18 -0.72,-0.65l-0.44 -0.41c-0.16,-0.1 -0.09,-0.02 -0.21,-0.16 -0.29,-0.32 -0.06,-0.05 -0.21,-0.31 -0.37,-0.23 -0.62,-0.68 -0.85,-1.04 -0.26,-0.39 -0.49,-0.76 -0.74,-1.2 -1.21,-2.18 -2.34,-7.06 -2.05,-9.24l9.19 -0.01 0.01 2.87c-2.11,0.26 -3.74,2.37 -3.72,4.76zm-19.85 18.89c-0.02,0.03 0,-0.02 0,0 0.01,-0.01 0.02,-0.03 0.04,-0.07 0.21,-0.47 0.03,-0.12 0.2,-0.32l1.41 -3.45 1.91 0.56c0.23,0.09 0.36,0.16 0.57,0.23l0.68 0.3 2.23 0.74 0.54 0.13 1.34 0.53c-0.4,5.49 0.84,7.58 2.03,11.97l-14.1 0.03 -6.58 21.18c-1.71,-0.54 -2.56,0.14 -3.42,1.05 -1.97,-2.09 -13.01,-7.65 -13.25,-8.13 -0.06,-0.12 -0.38,-2.86 -0.4,-3.19 -0.07,-1.24 2.83,-3.92 3.88,-6.91 1.76,-4.99 2.45,-11.32 -2.45,-14.57 -0.37,-0.25 -0.83,-0.4 -1.17,-0.69 0.14,-0.15 -0.06,0.02 0.18,-0.18l0.62 -0.41c0.34,-0.18 0.64,-0.33 1.01,-0.48l6.44 -2.13 7.6 17.83 1.32 -19.55 2.12 -0.01 1.25 19.52 3.87 -8.84 0.6 -1.39 0.22 -0.72c0.06,-0.12 0.11,-0.24 0.19,-0.4 0.01,-0.03 0.05,-0.12 0.07,-0.15 0.14,-0.24 -0.02,-0.02 0.16,-0.19l0.85 -2.05c0.04,-0.16 0.05,-0.22 0.05,-0.23zm53.6 0.74l14.83 9.9c0.8,-0.41 1.46,-0.93 2.2,-1.39l11.18 -7.11c1.47,-0.9 2.96,-1.96 4.45,-2.81 0.21,0.17 4.19,7.5 4.38,8.11 -0.67,0.23 -2.13,1.27 -2.85,1.72 -0.95,0.59 -1.8,1.13 -2.81,1.76l-11.37 7.14c-2.05,1.25 -3.84,2.54 -7,1.8 -1.9,-0.44 -4.44,-2.07 -6.22,-2.92 -2.06,-0.98 -4.06,-2.01 -6.16,-3.1 -1.23,-0.64 -2.67,-4.98 -2.97,-6.3 -0.57,-2.53 -0.53,-5.69 0.32,-8.1 0.54,0.23 1.45,0.91 2.03,1.3zm-22.63 23.39l15.3 9.42c0.7,0.44 1.57,1.05 2.27,1.38 -0.31,1.1 -13.41,21.42 -13.54,22.19 -0.31,0.23 -0.82,1.1 -1,1.47 -0.73,1.1 -1.37,2.4 -2.15,3.41l-15.35 -9.43c-0.56,-0.37 -1.79,-1 -2.21,-1.41 0.4,-0.9 1.06,-1.73 1.53,-2.63 0.12,-0.2 0.08,-0.13 0.19,-0.28 0.02,-0.03 0.08,-0.11 0.1,-0.13 0.13,-0.17 0.09,-0.1 0.17,-0.19l0.35 -0.59c0.13,-0.27 0.18,-0.38 0.4,-0.59l0.54 -0.94 0.47 -0.72 0.25 -0.54 0.21 -0.32c0.01,-0.02 0.04,-0.04 0.05,-0.06l0.11 -0.1 0.58 -0.99c0.14,-0.28 0.83,-1.51 1.1,-1.73 0.03,-0.13 1.41,-2.72 2.05,-3.05 0.51,-0.26 0.75,-0.31 1.14,-0.68 2.45,-2.23 1.17,-3.42 2.07,-4.9 1.77,-2.91 3.64,-5.77 5.33,-8.58zm-7.06 16.14c0.41,-0.8 1.32,-1.75 1.86,-2.42 0.7,-0.87 1.39,-1.75 2.09,-2.62 0.52,-0.65 1.85,-2.43 2.47,-2.88 1.15,-0.84 2.85,-0.49 3.59,0.72 0.78,1.26 0.27,2.3 -0.54,3.32 -0.1,0.12 -0.35,0.4 -0.58,0.67l1.32 1.01c0.02,0.02 0.04,0.03 0.06,0.05 0.32,0.27 0.65,0.53 0.96,0.8 2.01,1.75 2.3,3.65 0.57,5.85 -0.59,0.75 -1.19,1.5 -1.81,2.24 -0.88,1.07 -1.4,1.86 -2.93,2.12 -1.69,0.29 -2.61,-0.42 -3.82,-1.41 -0.73,-0.6 -1.48,-1.18 -2.21,-1.78 -1.27,-1.04 -1.62,-2.06 -1.71,-3.68 -0.01,-0.13 0,-0.25 0.04,-0.38 0.07,-0.29 0.1,-0.56 0.21,-0.85 0.07,-0.2 0.17,-0.39 0.29,-0.57 0.05,-0.07 0.1,-0.14 0.15,-0.2zm-17.78 -77.3c0.89,1.42 1.65,4.05 1.94,5.96 0.42,2.79 0.12,4.6 -0.17,7.32l-27.29 -7.64c0.66,-2.11 2.05,-4.25 3.31,-5.96 1.05,-1.42 1.18,-1.29 1.67,-1.87 0.76,-0.9 2.18,-1.96 3.31,-2.56 0.02,0.03 0.03,0.07 0.04,0.09 0.22,0.67 0.82,6.5 0.85,6.99l1.4 -0.17c0.28,-0.67 -0.73,-6.32 -0.76,-7.68 0.92,-0.74 3.77,-1.08 4.27,-1.26l2.18 0c0.46,0.22 1.97,0.44 2.73,0.72 1.99,0.74 5.09,3.13 5.64,4.65 -0.29,0.48 -0.77,1.02 -1.18,1.56 -0.62,0.82 -3.21,4.01 -3.49,4.63 0.4,0.22 0.7,0.56 1.13,0.8l3.32 -4.24c0.37,-0.49 0.75,-0.99 1.11,-1.36zm-22.97 7.98l21.3 5.9c0.15,1.07 -0.09,2.01 -0.14,3.01 0.68,0.49 1.88,0.69 1.63,2.05 -0.23,1.23 -1.52,1.07 -2.68,0.92 -0.96,2.73 -4.53,5.49 -7.52,6.29 -2.13,0.57 -4.13,0.54 -6.25,-0.04 -1.34,-0.37 -3.96,-1.67 -4.45,-2.5 -0.33,-0.15 -0.19,-0.09 -0.47,-0.35 -0.01,-0.01 -0.15,-0.15 -0.17,-0.17 -0.19,-0.21 -0.06,-0.03 -0.22,-0.26 -0.75,-0.58 -1.9,-2.53 -2.37,-3.78 -0.7,-1.86 -0.8,-3.29 -0.75,-5.42 -0.89,-0.19 -1.95,-0.72 -1.83,-1.87 0.14,-1.3 1.38,-1.12 2.56,-1.13 0.39,-1.23 0.94,-1.75 1.35,-2.64zm39.83 52.97c0.84,0.3 0.8,1.07 0.8,2.1 -0.01,1.94 0.13,7.38 -0.05,8.56 -0.24,1.57 -1.47,2.56 -3.18,2.61 -1.35,0.03 -4.31,0.23 -5.25,-0.44 -1.46,-1.04 -1.17,-2.4 -1.17,-4.56 0,-5.58 1.58,-4.22 7.09,-4.46 0,-1.17 -0.52,-4.62 1.77,-3.81zm73.67 -21.25c-0.02,0.19 -0.03,0.48 -0.07,0.66 -0.02,0.11 -0.04,0.17 -0.08,0.25 -0.1,0.17 -0.1,0.12 -0.19,0.21 -0.53,0.91 -0.92,1.03 -1.93,1.56 -0.62,0.33 -1.8,1.01 -2.43,1.22l-3.55 -6.56c1.8,-0.97 3.48,-1.94 5.22,-2.86 0.85,-0.45 1.76,-0.94 2.58,-1.42 1.27,-0.73 1.8,-1.13 2.74,0.23l0 0.61c-0.68,1.14 -2.62,2.21 -3.26,2.93 0.29,1.09 1.12,1.78 0.97,3.16zm-86.28 -3.4c4.69,1.31 8.73,6.7 9.35,11.34l-7.21 0.03c-0.12,-0.64 -1.16,-3.4 -1.57,-5.2 -0.42,-1.83 -0.78,-4.24 -0.57,-6.17zm7.11 39.44l2.58 -0.03c-0.26,0.53 -1.76,3.04 -2.15,3.3l-1.19 -0.73 0.75 -2.54zm-24.71 18.38l13.93 0.01 0.05 26.74 -0.02 2.63 -0.02 11.46 -10.3 0.03c-0.79,-0.02 -0.56,-0.54 -0.72,-2.68l-2.46 -31.79c-0.16,-1.95 -0.49,-4.51 -0.47,-6.4zm-1.86 0.01l0 40.84 -10.78 0.02c-0.32,-1.84 -0.35,-4.42 -0.52,-6.34 -0.18,-2.12 -0.34,-4.3 -0.5,-6.42l-2.01 -25.93c-0.55,-6.5 -0.5,-7.09 -0.5,-13.54l4.28 -0.01c1.26,-0.01 0.83,0.1 2.63,1.55 0.49,0.39 1.12,0.84 1.53,1.26l-2.61 8.58 8.47 -0zm-2.33 -19.82l3.83 3.15c1.77,2.19 -0.8,4.24 -2.64,6.57 -0.49,0.63 -1.35,1.17 -2.58,0.93 -1.02,-0.2 -2.9,-2.06 -4.07,-2.9 -0.58,-0.42 -1.12,-1.14 -1.22,-2.22 -0.16,-1.7 1.27,-3.01 2.49,-4.5l3.12 -3.86c0.45,-0.53 1,-1.61 2.09,-1.27 0.97,0.29 1.04,1.49 0.51,2.16 -0.55,0.69 -1.06,1.24 -1.53,1.94zm-19.22 -13.1c0.39,0.4 13.5,7.28 15.94,9.29 -0.17,0.79 -1.91,3.71 -2.37,4.3 -0.53,0.67 -1.04,1.27 -1.54,1.89 -0.69,0.86 -0.64,1.39 -1.07,2.36 -0.6,-0.24 -4.96,-3.19 -5.92,-3.8l-11.78 -7.65c-1.88,-1.21 -3.26,-2.48 -3.83,-4.63 -0.04,-0.15 -0.07,-0.31 -0.1,-0.46l-0.2 -0.55 0 -2.16 0.14 -0.36c0.36,-1.16 0.3,-1.52 1.2,-2.82l10.58 -16.27c0.62,-0.91 1.17,-1.87 1.8,-2.75 6.65,2.16 4.94,11.72 2.5,15.49 -0.6,0.93 -1.16,1.81 -1.78,2.68l-3.57 5.44zm79.89 19.56c-0.14,0.7 0.08,0.28 -0.26,0.48l-4.3 0c0.29,-0.76 0.92,-1.59 1.36,-2.31 0.52,-0.87 3.76,-6.2 4.1,-6.55 -0.06,1.75 -0.63,5.68 -0.85,7.87 -0.01,0.09 -0.03,0.45 -0.04,0.5zm-5.52 1.99l4.26 -0.02 -0.01 52.22 -10.81 0.01 -2.85 -36.52c-0.03,-0.67 0.41,-1.3 0.71,-1.67 0.12,-0.28 0.3,-0.73 0.59,-0.96 0.15,-0.33 0.04,-0.2 0.32,-0.45l0.25 -0.5 0.37 -0.65c0.58,-0.86 1.22,-1.88 1.75,-2.79l3.58 -5.79c0.53,-0.84 1.26,-2.2 1.84,-2.88zm-11.56 18.44l-0 33.76 -10.78 0.02c-0.21,-1.08 -1.55,-19.67 -1.68,-21.29 -0.18,-2.4 -1.8,-20.71 -1.58,-21.31 0.68,0.28 10.83,6.7 12.38,7.63 0.4,0.24 1.5,0.8 1.66,1.18zm-52.15 -20.51c0.27,0.18 0.47,0.26 0.66,0.55l-4.99 0.01 -0.39 -3.57 4.71 3zm41.38 55.78c3.72,0.02 7.67,-0.14 11.36,0 1.62,0.06 3.17,0.83 4.01,1.62 1.76,1.65 1.52,3.51 0.32,3.51 -0.67,-0.14 -13.09,-0.13 -13.74,0.02 -0.87,0.13 -1.69,-0.84 -1.87,-1.6 -0.18,-0.78 -0.08,-2.65 -0.08,-3.54zm30 5.07c0,-0 0,-0 0.01,-0 -0,0 -0,0 -0.01,0 -0.02,0.01 -0.06,0.04 -0.09,0.01 -1.74,0.15 -4.19,0.01 -5.99,0.01 -0.36,0 -5.97,0.07 -5.88,-0.09 -0.03,-0.84 0.48,-1.22 -0.49,-2.93 -0.56,-0.99 -1.04,-1.3 -1.71,-2.02 0.92,-0.14 9.15,-0.04 10.82,-0.04 2.27,-0.01 4.43,1.02 5.42,2.84 0.25,0.46 0.68,1.53 0.06,1.88 -0.31,0.09 -0.15,-0.57 -0.14,-0.92 0.01,-0.52 -0.06,-0.69 -0.21,-1.03 -1.02,-0.21 -0.72,-0.1 -1.7,0.11 0.2,0.56 -0.07,0.28 0.43,0.41 0.3,0.08 0.94,-0.42 0.94,0.39 -1.06,0.01 -1.55,0.08 -1.59,0.92 -0.02,0.31 0.01,0.42 0.04,0.46 0.03,-0 0.06,-0.01 0.09,-0.01zm0.55 -0.57c0.27,-0.16 0.42,-0.24 0.89,-0.23 -0.01,0.58 -0.21,0.69 -0.8,0.69l-0.1 -0.46zm-67.7 0.59l0.08 -0c-0,-0.02 -0.03,0.26 -0.08,0l-2.3 0.04c-2.33,0 -1.79,-3.69 -1.8,-5.12 3.72,0.03 7.67,-0.14 11.36,0.01 5.04,0.21 6.52,5.33 4.23,5.14l-9.31 -0.08c-0.17,-0.51 -0.08,-0.7 -0.1,-1.26 -0.03,-0.82 -0.23,-0.62 -0.32,-1.08 -1.02,-0.11 -1.56,-0.16 -1.6,0.51 0.41,0.3 0.58,-0 1.27,-0 0.13,0.64 0.09,-0.11 0.11,0.46 -0.93,0 -0.97,0.11 -1.54,0.46 -0.04,0.33 -0.07,0.36 -0.03,0.69 0.01,0.11 0.03,0.19 0.04,0.25zm11.73 -5.06l11.41 -0.01c1.65,0.09 2.9,0.74 3.99,1.75 1.86,1.72 1.28,3.53 0.15,3.39 -1.2,-0.26 -13.49,0.14 -13.35,-0.16 -0.01,-0.79 0.48,-1.32 -0.52,-3.01 -0.61,-1.03 -1.07,-1.2 -1.68,-1.96z"/>
 </g>
</svg>
