<?xml version="1.0" encoding="UTF-8"?>
<!DOCTYPE svg PUBLIC "-//W3C//DTD SVG 1.1//EN" "http://www.w3.org/Graphics/SVG/1.1/DTD/svg11.dtd">
<!-- Creator: CorelDRAW 2019 (64-Bit) -->
<svg xmlns="http://www.w3.org/2000/svg" xml:space="preserve" width="666px" height="800px" version="1.1" style="shape-rendering:geometricPrecision; text-rendering:geometricPrecision; image-rendering:optimizeQuality; fill-rule:evenodd; clip-rule:evenodd"
viewBox="0 0 17.3 20.79"
 xmlns:xlink="http://www.w3.org/1999/xlink">
 <defs>
  <style type="text/css">
   <![CDATA[
    .fil0 {fill:#E51A4B}
   ]]>
  </style>
 </defs>
 <g id="Katman_x0020_1">
  <metadata id="CorelCorpID_0Corel-Layer"/>
  <path class="fil0" d="M8.31 15.11l0.61 0.02 0.01 3.77c0,0.34 0.12,0.96 -0.31,0.94 -0.42,-0.01 -0.32,-0.55 -0.32,-0.94l0.01 -3.79zm-2.5 -8.98c0.56,-0.17 0.13,0.22 1.2,-0.12 0.36,-0.11 0.68,-0.25 1,-0.4 0.3,-0.15 0.63,-0.36 0.86,-0.54 0.35,-0.27 0.39,-0.4 0.65,-0.79 0,0.01 0.01,0.01 0.01,0.02l0.27 0.52c0.45,0.68 1.17,0.3 1.21,1.35 0.22,-0.03 0.4,-0.13 0.62,-0.04 0.11,0.13 0.11,0.46 0.03,0.64 -0.1,0.22 -0.32,0.12 -0.54,0.12 -0.33,1.4 -2.18,3.68 -3.91,1.57 -0.3,-0.37 -0.71,-0.99 -0.84,-1.57l-0.49 0.02c-0.11,-0.23 -0.14,-0.5 -0.07,-0.78zm3.99 -5.09c0.12,-1.5 -2.37,-1.27 -2.12,0.01 -1.7,0.51 -2.23,1.99 -2.32,3.7 -0.01,0.29 0.05,0.95 -0.03,1.17 -0.14,0.38 -0.15,0.65 -0.01,1.04 0.12,0.36 0.3,0.38 0.66,0.51 0.08,0.13 0.13,0.31 0.21,0.45 0.54,0.95 1.27,1.91 2.55,1.94 1.08,0.02 1.84,-0.8 2.32,-1.55 0.18,-0.27 0.28,-0.58 0.44,-0.84 0.38,-0.15 0.54,-0.15 0.67,-0.53 0.15,-0.45 0.09,-0.65 -0.03,-1.05 -0.05,-0.16 0.02,-1.38 -0.16,-2.25 -0.28,-1.39 -0.87,-2.12 -2.18,-2.6zm5.3 14.33c-0.27,0.06 -0.26,0.12 -0.3,0.4 -0.05,0.32 -0.23,0.21 -0.18,0.47 0.02,0.09 0.08,0.14 0.08,0.25 0,0.2 -0.07,0.1 -0.08,0.28 -0.02,0.15 0.03,0.12 0.04,0.27 0.03,0.38 -0.3,0.54 0.83,0.79 0.38,0.08 0.81,0.15 1.17,-0.01 0.59,-0.26 0.85,-1.15 0.44,-1.84 -0.16,-0.27 -0.41,-0.47 -0.8,-0.53 -0.27,-0.05 -0.96,-0.13 -1.2,-0.08zm-13.38 0c-0.92,0.06 -1.48,0.18 -1.68,1.03 -0.2,0.83 0.34,1.54 1.11,1.52 0.35,-0.01 1.41,-0.14 1.51,-0.51 0.04,-0.12 0,-0.15 -0.01,-0.26 -0.02,-0.21 0.03,-0.17 0.04,-0.32 0.03,-0.31 -0.17,-0.08 -0.02,-0.53 0.11,-0.33 -0.09,-0.17 -0.15,-0.47 -0.08,-0.36 0.05,-0.52 -0.8,-0.46zm1.7 -3.42l4.02 0.86c0.77,0.18 0.54,0.05 1.21,0.39 0.6,-0.35 1.74,-0.5 2.55,-0.68l2.68 -0.57c-0.15,-0.92 -0.55,-1.12 -1.3,-1.45 -0.54,-0.23 -1.46,-0.51 -2.07,-0.64l0.18 1.85c-0.27,-0.03 -1.82,-0.71 -2.01,-0.73 -0.17,-0.02 -1.69,0.65 -2.06,0.73l0.18 -1.85c-0.6,0.11 -1.53,0.42 -2.08,0.64 -0.75,0.32 -1.14,0.53 -1.3,1.45zm5.2 8.84c0.59,0 0.61,-0.29 1.04,-0.38 0.28,-0.07 0.64,-0.11 0.93,-0.16 0.64,-0.12 1.26,-0.21 1.89,-0.33l2.82 -0.5c0.36,-0.11 0.27,-0.7 0.27,-0.71 0,-0.01 -0.01,-0.02 -0.01,-0.03 -0.05,-0.15 -0.95,-0.09 -1.43,-0.6 -0.6,-0.65 -0.46,-3.21 0.77,-3.48 0.33,-0.08 0.72,0.03 1,-0.03 0.02,-0.43 0.05,-0.85 0.09,-1.28 0.1,-1.31 -0.1,-0.97 -2.66,-0.42l-3.42 0.73c-0.5,0.12 -0.9,0.07 -0.99,0.55l-0.61 0.01c0,-0.19 -0.04,-0.32 -0.31,-0.42 -0.14,-0.05 -0.41,-0.1 -0.58,-0.13l-4.54 -0.98c-1.46,-0.29 -1.64,-0.59 -1.56,0.62 0.02,0.44 0.06,0.88 0.09,1.33 0.32,0.05 1.13,-0.17 1.59,0.33 0.54,0.59 0.72,2.54 0.2,3.14 -0.53,0.61 -1.43,0.41 -1.47,0.69 -0.02,0.12 0,0.56 0.26,0.66l4.69 0.84c0.27,0.05 0.69,0.1 0.94,0.16 0.42,0.12 0.41,0.39 1,0.39z"/>
 </g>
</svg>
