<?xml version="1.0" encoding="UTF-8"?>
<!DOCTYPE svg PUBLIC "-//W3C//DTD SVG 1.1//EN" "http://www.w3.org/Graphics/SVG/1.1/DTD/svg11.dtd">
<!-- Creator: CorelDRAW 2020 (64-Bit) -->
<svg xmlns="http://www.w3.org/2000/svg" xml:space="preserve" width="31.0102mm" height="30mm" version="1.1" style="shape-rendering:geometricPrecision; text-rendering:geometricPrecision; image-rendering:optimizeQuality; fill-rule:evenodd; clip-rule:evenodd"
viewBox="0 0 140.93 136.34"
 xmlns:xlink="http://www.w3.org/1999/xlink"
 xmlns:xodm="http://www.corel.com/coreldraw/odm/2003">
 <defs>
  <style type="text/css">
   <![CDATA[
    .fil0 {fill:white}
   ]]>
  </style>
 </defs>
 <g id="Layer_x0020_1">
  <metadata id="CorelCorpID_0Corel-Layer"/>
  <g id="_2310198238544">
   <path class="fil0" d="M7.71 115.35c0.37,-0.11 30.37,-0.02 33.58,-0.02 6.96,0.01 6.72,-0.57 6.72,1.78 -0,0.71 0.26,2.04 -0.52,2.25 -0.55,0.15 -31.47,0.04 -33.63,0.04 -6.89,0 -6.7,0.58 -6.69,-1.84 0,-0.74 -0.24,-1.97 0.55,-2.22zm71.59 -46.6l-4.16 37.15c-0.43,3.73 0.09,3.53 1.68,7.52 0.24,0.6 0.45,1.13 0.69,1.68 0.24,0.57 0.38,1.4 1.12,1.21 0.43,-0.11 3.48,-4.83 3.97,-5.55 0.92,-1.38 0.89,-1.72 1.1,-3.62l3.83 -34.22 0.17 -1.52 -1.66 -1.56 -3.72 -3.32c-0.01,0.43 -0.22,0.83 -0.6,1.08 -0.76,0.51 -1.58,0.91 -2.42,1.14zm-22.05 38.42c0.55,-0.15 7.51,-0.04 9.1,-0.05 0.98,-0 1.87,-0.01 2.11,0.88 0.16,0.6 0.05,7.6 0.06,9.22 0,1.09 0.01,1.93 -0.94,2.14 -0.79,0.17 -7.47,0.04 -9.25,0.04 -1.03,0 -1.87,-0.06 -2.07,-1 -0.16,-0.78 -0.02,-7.42 -0.03,-9.2 -0,-1.17 0.01,-1.77 1.02,-2.04zm-50.09 0.91c0,-0.95 0.45,-0.96 1.27,-0.96l36.13 0c2.25,0 3.44,-0.35 3.44,0.96 0,3.58 0.37,3.1 -2.76,3.1l-33.42 0c-5.36,0 -4.66,0.67 -4.66,-3.1zm0.22 -10.71c-0.33,-0.65 -0.23,-1.82 -0.23,-2.73 0.01,-1.29 0.45,-1.22 1.61,-1.21l33.87 0c1.37,0 4.46,-0.31 5.32,0.29 0.11,0.8 0.25,3.11 -0.24,3.63 -0.64,0.38 -8.6,0.17 -10.05,0.17 -3.43,0 -29.23,0.19 -30.29,-0.15zm49.66 -12.04c0.58,-0.23 7.58,-0.1 9.2,-0.11 0.71,-0 1.91,-0.17 2.22,0.88 0.16,0.53 0.06,7.56 0.06,9.11 0,0.96 0.12,1.95 -0.84,2.23 -0.65,0.19 -7.57,0.08 -9.23,0.08 -1.03,0 -1.92,-0 -2.16,-0.93 -0.25,-0.98 0.04,-7.2 -0.07,-9.06 -0.07,-1.14 -0.11,-1.84 0.82,-2.2zm-49.88 1.19c0,-1.31 0.23,-1.31 1.49,-1.3 12.57,0.09 25.36,0 37.94,0 1.01,0 1.41,-0.09 1.41,1.07 0,3.56 0.56,3.02 -4.12,3.02 -10.75,0 -21.81,-0.09 -32.52,0.01 -4.82,0.05 -4.21,0.41 -4.2,-2.8zm0.58 -14.95c0.46,-0.14 30.38,-0.03 33.66,-0.03 1.85,0 3.81,-0.06 5.65,-0.01 1.19,0.04 0.95,0.83 0.95,1.89 -0,0.82 0.24,1.99 -0.57,2.17 -0.53,0.12 -9.84,0.03 -11.23,0.03 -3.72,0 -7.46,0.03 -11.18,0 -3.76,-0.02 -7.53,-0 -11.29,-0 -6.85,0 -6.58,0.59 -6.58,-1.86 0,-0.84 -0.23,-1.95 0.58,-2.19zm49.29 -8.15c0.57,-0.23 7.58,-0.09 9.2,-0.1 0.99,-0 1.93,-0.08 2.21,0.88 0.17,0.58 0.06,7.61 0.07,9.22 0,1.06 0.08,1.87 -0.92,2.14 -0.64,0.17 -7.51,0.05 -9.16,0.06 -1,0 -1.83,0.08 -2.13,-0.85 -0.17,-0.53 -0.08,-7.59 -0.08,-9.14 -0,-1.03 -0.05,-1.87 0.8,-2.21zm-49.88 1.2c-0,-1.64 0.51,-1.29 3.53,-1.29l35.79 -0c1.56,-0.01 1.53,0.11 1.52,1.63 -0.01,3.22 0.63,2.46 -6.83,2.46l-32.97 0c-1.31,0 -1.04,-0.86 -1.04,-2.8zm69.4 55.38c-1.25,-0.39 -2.09,-1.5 -2.61,-2.8 -0.53,-1.34 -1.07,-2.63 -1.6,-3.93 -1.69,-4.12 -1.72,-4.38 -1.11,-9.24 0.83,-6.59 1.51,-13.26 2.23,-19.89 0.57,-5.27 1.18,-10.54 1.77,-15.8 -0.33,-0.2 -0.66,-0.44 -0.97,-0.74 -1.17,-1.12 -1.85,-2.8 -1.85,-4.41 0,-1.27 0.7,-2.32 1.26,-3.4 0.12,-0.22 0.28,-0.4 0.48,-0.52l-6.28 -5.61 -0.04 -0.04 0 2.48 -2.73 0 0 -12.33 0 -0.01 -3.75 10.13 -2.34 0 -3.75 -9.94 -0 0.01 0 12.14 -2.73 0 0 -17.7 3.36 0 4.28 11.81 4.29 -11.81 3.36 0 0 13.21 1.45 -2.41c0.21,-0.35 0.53,-0.57 0.93,-0.63 0.14,-0.02 0.27,-0.03 0.41,-0.01 -0.46,-0.44 -0.55,-1.13 -0.22,-1.67l1.66 -2.69c0.21,-0.34 0.53,-0.55 0.92,-0.62 0.4,-0.06 0.76,0.03 1.07,0.29l2.48 2.05 0 -8.5c0,-1.83 0.22,-3.62 -0.94,-4.62 -1.14,-0.98 -3.09,-0.7 -4.85,-0.7l-66.39 0c-2.02,0 -3.22,0.09 -3.98,1.56 -0.63,1.22 -0.31,8.71 -0.31,10.64l0 77.46c0,2.01 -0.28,3.41 1,4.53 1.14,0.99 3.22,0.68 4.87,0.68l66.39 -0c5.44,0 3.94,-2.66 4.23,-6.96zm-57.59 -81.61l0 2.79 -8.71 0 0 4.72 7.37 0 0 2.79 -7.37 0 0 4.61 8.71 0 0 2.79 -8.71 0 -1.7 0 -1.21 0 0 -17.7c3.87,0 7.74,0 11.62,0zm21 11.56l4.88 0 -2.45 -7.04 -2.44 7.04zm5.85 2.78l-6.81 0 -1.16 3.36 -3.14 0 6.65 -17.7 2.12 0 6.65 17.7 -3.13 0 -1.17 -3.36zm-18.59 -8.25l3.57 -6.09 3.15 0 -5.19 8.67 5.46 9.03 -3.15 0 -3.82 -6.46 -3.78 6.46 -3.15 0 5.39 -9.04 -5.25 -8.67 3.15 0 3.62 6.09z"/>
   <path class="fil0" d="M80.42 48.76l6.65 4.99 1.66 -3.32c0,3.08 0.09,6.64 0.55,7.76l-16.07 -13.3 -1.66 2.69 15.1 12.68c2.47,2.35 3.17,2.01 3.17,6.25l-19.39 -16.62 -1.66 2.77 18.14 16.21 2.91 2.72c0,4.63 -1.05,6.74 3.33,7.11 -0.22,2.63 -1.11,4.97 -1.62,7.25 -0.56,2.49 -1.07,5.02 -1.59,7.27 -1.53,6.53 -6.73,32.55 -5.16,38.15 1.76,6.3 9.23,5.2 11.52,1.45l8.5 -49.13c0.83,0.61 1.05,0.62 1.08,0.63 0.12,1.73 1.07,10.56 1.23,12.02 2.87,26.98 -1.2,30.25 -1.2,33.34 0,5.67 10.72,13.33 13.79,-3.94 3.06,-17.19 -1.6,-34.21 -1.6,-51.46l0.55 0c0,6 2.22,12.36 2.22,18.28 4.97,-0.11 20.18,-8.27 20.06,-12.94 -0.07,-2.57 -8.48,-14.78 -9.53,-16.42 -1.07,0.72 -7.93,10.53 -16.62,10.53 -2.63,0 -5.42,-3.53 -9.75,-6.88 -2.8,-2.16 -5.47,-6.36 -7.07,-9.56 -4.14,-8.27 -4.8,-16.3 -4.8,-28.45 -5.17,1.2 -6.17,5.11 -7.6,8.47 -1.29,3.02 -4.9,8.51 -5.15,11.48zm-6.65 14.41c0,2.79 2.7,6.34 7.2,3.32 -0.51,-1.92 -4.42,-4.97 -6.09,-6.09 -0.37,0.7 -1.11,1.83 -1.11,2.77zm18.28 -51.53c0,16.14 23.83,16.39 23.83,0 0,-6.01 -5.69,-11.64 -11.64,-11.64 -6.42,0 -12.19,5.31 -12.19,11.64zm2.22 19.95c0,8.94 1.31,15.02 3.66,21.83 1.57,4.54 6.98,13.03 11.3,14.19 0.32,-3.85 5.9,-6.94 9.42,-7.76l0.55 -15.51c2,1.46 3.88,6.33 3.88,9.97 0,7.72 -8.77,7.64 -12.19,12.74 2.24,9.63 11.14,2.7 15.52,-1.11 12.65,-11.01 0.45,-32.27 -10.5,-37.15 -4.68,-2.08 -13.96,-4.25 -19.54,-1.76 -1.42,0.64 -2.09,1.66 -2.09,4.56z"/>
  </g>
 </g>
</svg>
