<?xml version="1.0" encoding="UTF-8"?>
<!DOCTYPE svg PUBLIC "-//W3C//DTD SVG 1.1//EN" "http://www.w3.org/Graphics/SVG/1.1/DTD/svg11.dtd">
<!-- Creator: CorelDRAW 2017 -->
<svg xmlns="http://www.w3.org/2000/svg" xml:space="preserve" width="50px" height="39px" version="1.1" style="shape-rendering:geometricPrecision; text-rendering:geometricPrecision; image-rendering:optimizeQuality; fill-rule:evenodd; clip-rule:evenodd"
viewBox="0 0 1.09 0.86"
 xmlns:xlink="http://www.w3.org/1999/xlink">
 <defs>
  <style type="text/css">
   <![CDATA[
    .fil0 {fill:#FEFEFE}
   ]]>
  </style>
 </defs>
 <g id="Katman_x0020_1">
  <metadata id="CorelCorpID_0Corel-Layer"/>
  <path class="fil0" d="M0.43 0.14c0.01,0 0.14,-0.06 0.15,-0.06 0.01,0 0.07,0.03 0.08,0.03 0.01,0.01 0.01,0.01 0.02,0.01l0.06 0.03c0.02,0 0.15,0.06 0.17,0.06l0 0.01c-0.01,0 -0.02,0 -0.03,0.01l-0.12 0.05c-0.01,0 -0.2,-0.08 -0.21,-0.08 -0.01,-0.01 -0.12,-0.05 -0.12,-0.06zm-0.42 0.18c0,0.05 0.01,0.06 0.03,0.09 -0.01,0.01 -0.02,0.03 -0.03,0.04 -0.01,0.02 -0.01,0.04 -0.01,0.07 0,0.03 0.01,0.05 0.04,0.06l0.25 0.14c0.01,0.01 0.02,0.02 0.03,0.02l0.22 0.12c0.01,-0.01 0.02,-0.01 0.03,-0.02l0.38 -0.2c0.01,0 0.02,-0.01 0.04,-0.01l0.1 -0.06 0 -0.04c-0.01,0 -0.08,0.04 -0.1,0.05 -0.01,0.01 -0.03,0.01 -0.04,0.02l-0.07 0.03c-0.01,0.01 -0.02,0.02 -0.03,0.02 -0.01,0.01 -0.02,0.01 -0.04,0.02l-0.05 0.03c-0.01,0 -0.01,0 -0.02,0.01l-0.2 0.1c-0.01,0 -0.06,-0.03 -0.07,-0.03 0,0 -0.01,-0.01 -0.01,-0.01 -0.04,-0.02 -0.08,-0.04 -0.12,-0.06 -0.01,-0.01 -0.02,-0.01 -0.03,-0.02l-0.13 -0.07c-0.03,-0.02 -0.1,-0.06 -0.12,-0.08 -0.04,-0.03 0,-0.1 0.02,-0.1 0,0 0.03,0.01 0.04,0.02l0.03 0.01c0.03,0.02 0.06,0.04 0.1,0.06l0.27 0.14c0.02,0.02 0.01,0.01 0.06,-0.01 0.02,-0.01 0.03,-0.01 0.04,-0.02 0,0 0.01,-0.01 0.01,-0.01 0.01,0 0.01,-0.01 0.02,-0.01 0.1,-0.05 0.2,-0.11 0.31,-0.16 0.01,0 0.12,-0.06 0.13,-0.07l0 -0.04c-0.01,0 -0.11,0.06 -0.13,0.07l-0.07 0.03c-0.01,0.01 -0.02,0.01 -0.03,0.02l-0.27 0.14c-0.01,0 -0.01,0 -0.02,0.01 0,0 -0.01,0 -0.01,0 -0.03,0.02 -0.03,0.02 -0.07,-0.01 -0.05,-0.03 -0.11,-0.06 -0.16,-0.09l-0.23 -0.12c-0.04,-0.03 -0.06,-0.05 -0.03,-0.1 0,0 0.01,-0.02 0.02,-0.02 0.02,0 0.08,0.03 0.1,0.04 0.05,0.02 0.23,0.12 0.28,0.15 0.02,0.01 0.04,0.02 0.07,0.03l0.52 -0.27c0.01,0 0.03,-0.01 0.03,-0.02 -0.01,0 -0.03,-0.01 -0.05,-0.02l-0.21 -0.09c-0.02,0 -0.04,-0.01 -0.07,-0.02 -0.02,-0.01 -0.18,-0.08 -0.2,-0.08 -0.01,0 -0.08,0.04 -0.11,0.05 -0.05,0.02 -0.1,0.05 -0.15,0.07l-0.22 0.11c-0.01,0 -0.02,0.01 -0.03,0.02 -0.02,0.02 -0.04,0.04 -0.04,0.07zm0.08 0.18l0 0.03c0.01,0 0.04,0.02 0.05,0.03l0.06 0.03c0.01,0 0.01,0 0.01,0l0.07 0.04c0.01,0.01 0.01,0.01 0.02,0.01 0,0 0.01,0.01 0.01,0.01 0.01,0 0.01,0 0.02,0.01l0.07 0.03c0.02,0.02 0.13,0.08 0.14,0.08l0.11 -0.06c0.06,-0.02 0.12,-0.06 0.17,-0.09l0.18 -0.09c0,0 0.01,-0.01 0.01,-0.01 0.01,0 0.03,-0.01 0.04,-0.01l0 -0.03c-0.01,0 -0.16,0.08 -0.18,0.1 -0.02,0 -0.02,0.01 -0.03,0.01l-0.27 0.14c-0.04,0.02 -0.03,0.02 -0.07,0 -0.01,-0.01 -0.01,-0.01 -0.02,-0.02l-0.15 -0.08c-0.06,-0.03 -0.15,-0.08 -0.21,-0.11 -0.01,-0.01 -0.02,-0.01 -0.03,-0.02zm0 -0.04l0 0.02 0.16 0.09c0.01,0 0.01,0 0.02,0.01l0.11 0.06c0.04,0.02 0.1,0.05 0.14,0.07 0.03,0.02 0.01,0.02 0.07,-0.01l0.18 -0.1c0.08,-0.03 0.17,-0.09 0.25,-0.13 0,0 0.02,-0.01 0.03,-0.01l0 -0.03 -0.06 0.04c-0.06,0.03 -0.13,0.06 -0.18,0.09l-0.12 0.07c-0.02,0.01 -0.04,0.02 -0.06,0.03 -0.01,0 -0.02,0.01 -0.03,0.01l-0.05 0.03c0,0 -0.01,0 -0.01,0 -0.01,0 -0.01,0 -0.01,0 0,0 0,-0.01 -0.01,-0.01 0,0 -0.01,0 -0.01,-0.01l-0.23 -0.12c0,0 -0.01,0 -0.01,-0.01l-0.15 -0.08c-0.01,0 -0.02,-0.01 -0.03,-0.01zm0.02 -0.16l0 0.03 0.21 0.1c0.01,0.01 0.02,0.01 0.03,0.02l0.17 0.09c0.03,0.01 0.01,0.01 0.06,-0.01l0.09 -0.05c0.01,0 0.02,-0.01 0.03,-0.01l0.2 -0.11c0.02,-0.01 0.14,-0.08 0.15,-0.08l0 -0.02c-0.01,0 -0.16,0.08 -0.18,0.09l-0.32 0.17c-0.01,0.01 -0.01,0.01 -0.03,0l-0.09 -0.05c-0.01,-0.01 -0.01,-0.01 -0.02,-0.02 -0.01,0 -0.02,-0.01 -0.03,-0.01l-0.12 -0.06c-0.02,-0.01 -0.14,-0.07 -0.15,-0.08zm0 0.05l0 0.02 0.12 0.06c0.09,0.05 0.2,0.1 0.29,0.15 0.02,0.01 0.02,0.02 0.04,0l0.19 -0.1c0.01,-0.01 0.02,-0.01 0.03,-0.02l0.27 -0.14 0 -0.02c-0.01,0 -0.05,0.03 -0.06,0.03 -0.07,0.04 -0.14,0.08 -0.2,0.11l-0.12 0.06c-0.01,0.01 -0.02,0.01 -0.03,0.02l-0.09 0.04c-0.01,0.01 -0.01,0.01 -0.03,0l-0.41 -0.21z"/>
 </g>
</svg>
