<?xml version="1.0" encoding="UTF-8"?>
<!DOCTYPE svg PUBLIC "-//W3C//DTD SVG 1.1//EN" "http://www.w3.org/Graphics/SVG/1.1/DTD/svg11.dtd">
<!-- Creator: CorelDRAW 2020 (64-Bit) -->
<svg xmlns="http://www.w3.org/2000/svg" xml:space="preserve" width="21.5508mm" height="25mm" version="1.1" style="shape-rendering:geometricPrecision; text-rendering:geometricPrecision; image-rendering:optimizeQuality; fill-rule:evenodd; clip-rule:evenodd"
viewBox="0 0 99.86 115.84"
 xmlns:xlink="http://www.w3.org/1999/xlink"
 xmlns:xodm="http://www.corel.com/coreldraw/odm/2003">
 <defs>
  <style type="text/css">
   <![CDATA[
    .fil0 {fill:white}
   ]]>
  </style>
 </defs>
 <g id="Layer_x0020_1">
  <metadata id="CorelCorpID_0Corel-Layer"/>
  <path class="fil0" d="M88.88 0l0.61 0c1.05,0.82 0.9,1.17 0.88,2.94 -0.06,7.31 -0.24,18.93 -0.01,25.44l9.51 3.15 -0.07 69.54c-6.13,-1.53 -48.71,-16.04 -50.39,-15.73 -0.69,0.12 -2.43,0.84 -3.24,1.1l-21.66 7.29c-4.09,1.38 -8.23,2.8 -12.41,4.12 -2.19,0.69 -4.14,1.36 -6.31,2.07 -4.22,1.38 -4.39,1.94 -5.78,0.65l0 -70.2c1.58,-1.54 8.64,-3.32 11.28,-4.28l-0.01 -24.56c1.33,0.28 3.45,1.16 4.8,1.63l24.09 8.49c1.65,0.59 3.22,1.13 4.84,1.72 2.88,1.06 2.26,0.76 5.04,-0.21l38.84 -13.17zm-86.33 31.7l-0.01 66.52 45.18 -14.96 -0.02 -66.51 -45.15 14.94zm48.16 -16.06c0.86,0.57 24.61,7.99 27.65,8.93 3,0.93 6.46,2.27 9.43,2.97l0.06 -24.47 -37.14 12.56zm1.09 100.2l-6.59 0c-1.58,-0.67 -9.98,-0.31 -20.9,-5.98 -1.11,-0.58 -1.88,-1 -2.91,-1.62 -1.26,-0.76 -1.7,-1.02 -0.83,-2.56 1.56,-0.29 2.17,0.41 3.25,1.05 6.22,3.67 15.97,6.53 23.24,6.63 11.29,0.16 18.5,-2.93 26.5,-7.5l-2.77 -4.72 10.17 0.78c-0.03,1.08 -1.23,3.93 -1.64,5.22l-1.38 4.05c-0.24,0.68 -0.18,0.63 -0.5,1.02l-2.54 -4.05c-0.94,0.33 -1.71,0.89 -2.54,1.32 -13,6.74 -17.98,5.3 -20.55,6.37zm40.12 -40.92l-19.89 -7.78c-0.23,3.05 -1.31,4.88 -3.25,5.5 -1.67,0.53 -4.13,0.16 -7.36,-1.1 -3.01,-1.18 -5.29,-2.67 -6.84,-4.47 -1.54,-1.8 -2.23,-3.76 -2.07,-5.91 0.14,-1.82 0.52,-3.38 1.16,-4.69 0.7,-1.44 1.98,-3.17 3.84,-5.18l1.06 1.27c-1.41,1.74 -2.34,3.03 -2.8,3.88 -0.46,0.85 -0.73,1.81 -0.81,2.88 -0.1,1.38 0.51,2.78 1.83,4.2 1.33,1.42 3.12,2.57 5.4,3.46 2.23,0.87 4.14,1.15 5.73,0.84 1.59,-0.31 2.44,-1.13 2.54,-2.45 0.06,-0.81 -0.01,-1.68 -0.21,-2.59 -0.21,-0.9 -0.67,-2.41 -1.41,-4.52l2.02 -4.67c0.59,1.66 0.92,2.61 0.99,2.86 0.31,0.94 0.51,1.79 0.6,2.54 0.09,0.75 0.1,1.68 0.01,2.78 0.81,0.32 1.56,0.39 2.24,0.21 0.08,-0.02 0.73,-0.24 1.95,-0.65l7.04 -2.44c1.11,-0.36 1.93,-0.58 2.47,-0.65 0.75,-0.09 1.49,0.01 2.22,0.3 1.39,0.54 2.44,1.49 3.16,2.84 0.83,1.55 1.15,3.55 0.96,5.99l-0.57 7.55zm-1.88 -8.33c0.04,-0.5 -0.32,-1.09 -1.05,-1.78 -0.74,-0.68 -1.65,-1.23 -2.73,-1.66 -0.82,-0.32 -1.77,-0.4 -2.83,-0.24 -1.07,0.16 -2.63,0.6 -4.7,1.32l4.89 1.91c4.18,1.64 6.33,1.78 6.43,0.44zm-6.19 -16.6l-2.56 3.54 -4.18 -4.1 2.6 -3.57 4.14 4.13zm-40.44 14.25l-7.38 3.3 -2.92 -6.4 -13.58 6.06 -2.81 8.96 -7.25 3.24 13.14 -39.72 7.24 -3.23 13.56 27.8zm-12.53 -7.84l-4.7 -10.43 -4.57 14.57 9.28 -4.14z"/>
 </g>
</svg>
