<?xml version="1.0" encoding="UTF-8"?>
<!DOCTYPE svg PUBLIC "-//W3C//DTD SVG 1.1//EN" "http://www.w3.org/Graphics/SVG/1.1/DTD/svg11.dtd">
<!-- Creator: CorelDRAW 2019 (64-Bit) -->
<svg xmlns="http://www.w3.org/2000/svg" xml:space="preserve" width="101.242mm" height="45.9264mm" version="1.1" style="shape-rendering:geometricPrecision; text-rendering:geometricPrecision; image-rendering:optimizeQuality; fill-rule:evenodd; clip-rule:evenodd"
viewBox="0 0 1109.89 503.48"
 xmlns:xlink="http://www.w3.org/1999/xlink">
 <defs>
  <style type="text/css">
   <![CDATA[
    .fil0 {fill:white}
    .fil1 {fill:white;fill-rule:nonzero}
   ]]>
  </style>
 </defs>
 <g id="Katman_x0020_1">
  <metadata id="CorelCorpID_0Corel-Layer"/>
  <path class="fil0" d="M515.29 380.53l-40.58 -94.03c-2.91,-30.54 3.79,-98.41 -42.05,-145.54l-0.16 14.24 -30.9 6.36c1.31,1.83 2.62,3.72 3.92,5.69 62.67,94.24 -18.68,207.64 -137.98,207.26 -67.63,-0.21 -127.26,-36.49 -150.46,-96.02 -16.64,-42.69 -3.01,-85.67 12.31,-111.53 1.39,-2.34 3.05,-4.77 4.93,-7.25l-13.21 -2.96 -0.3 -12.17c-64.08,72.51 -53.47,195.94 60.03,252.92 54.01,27.12 118.28,30.39 175.38,8.8 31.86,-12.05 54.81,-28.14 79.33,-51.34l79.74 25.57z"/>
  <path class="fil0" d="M113.99 269.44c-11.62,-39.63 1.15,-78.45 15.39,-102.48 1.34,-2.27 2.95,-4.62 4.76,-7.02l0.05 -0.26 -13.08 -2.94 -0 -0.21c-18.84,60 -16.54,88.02 -7.11,112.92l0 -0.01z"/>
  <path class="fil0" d="M-0 57.38l49.91 11.93 4.03 96.11 22.65 7.61 -2.48 -98.25 53.97 13.52 1.53 61.47 91.86 20.62c30.83,6.92 59.81,7.07 89.57,0.95l112.87 -23.22 0.54 -46.9 -0 0 -74.82 15.65c-4.13,1.03 -8.21,2.04 -12.2,3.03 -10.58,2.61 -19.41,4.23 -26.47,5.06l-22.03 4.61c-4.4,0.92 -8.75,-1.93 -9.67,-6.33l0 -0c-0.92,-4.4 1.93,-8.75 6.33,-9.68l262.35 -54.88 -274.97 -58.69 -272.95 57.38z"/>
  <path class="fil0" d="M162.18 315.84c39.36,29.31 101.85,40.05 151.79,23.28l-14.5 -23.44c-21.1,9.13 -44.44,14.21 -68.83,14.21 -24.39,0 -47.46,-5.01 -68.47,-14.05z"/>
  <path class="fil1" d="M651.61 197c-14.51,0 -25.68,6.68 -33.51,20.05 -7.83,13.37 -11.74,30.93 -11.74,52.7 0,46.97 15.28,70.46 45.83,70.46 30.17,0 45.26,-23.49 45.26,-70.46 0,-48.5 -15.28,-72.75 -45.83,-72.75zm0 202.79c-33.61,0 -59.29,-11.36 -77.05,-34.08 -17.76,-22.72 -26.64,-54.9 -26.64,-96.52 0,-18.71 2.48,-36.09 7.45,-52.13 4.96,-16.04 12.03,-29.98 21.2,-41.82 9.16,-11.84 20.05,-21.1 32.65,-27.78 12.6,-6.68 26.73,-10.03 42.39,-10.03 15.66,0 29.88,3.34 42.68,10.03 12.79,6.68 23.77,15.85 32.94,27.5 9.17,11.65 16.23,25.59 21.2,41.82 4.97,16.23 7.45,33.7 7.45,52.42 0,40.48 -8.97,72.37 -26.92,95.67 -17.95,23.3 -43.73,34.94 -77.33,34.94zm177.58 -272.68c-9.93,0 -17.76,-3.53 -23.49,-10.6 -5.73,-7.06 -8.59,-15.94 -8.59,-26.64 0,-11.07 2.86,-20.15 8.59,-27.21 5.73,-7.06 13.56,-10.6 23.49,-10.6 8.78,0 16.33,3.53 22.63,10.6 6.3,7.07 9.45,16.14 9.45,27.21 0,10.69 -3.25,19.57 -9.74,26.64 -6.49,7.07 -13.94,10.6 -22.34,10.6zm-29.21 13.75l58.43 0 0 256.06 -58.43 0 0 -256.06zm202.22 54.99c-17.19,0 -29.12,6.3 -35.8,19 -6.68,12.6 -10.02,28.74 -10.02,48.31 0,11.07 0.76,21.39 2.29,30.74 1.53,9.36 4.11,17.57 7.73,24.44 3.63,6.87 8.31,12.41 14.03,16.42 5.73,4.01 12.99,6.01 21.77,6.01 4.97,0 9.93,-1.24 14.89,-3.72 4.97,-2.48 9.45,-5.54 13.46,-9.26 4.01,-3.63 7.16,-7.73 9.45,-12.32 2.29,-4.58 3.44,-8.97 3.44,-13.27l0 -67.79c0,-4.68 -1.24,-9.17 -3.72,-13.56 -2.48,-4.39 -5.73,-8.5 -9.74,-12.32 -4.01,-3.91 -8.31,-6.97 -12.89,-9.26 -4.58,-2.29 -9.16,-3.44 -13.75,-3.44l-1.15 0zm-1.15 204.51c-17.57,0 -32.65,-3.53 -45.26,-10.6 -12.6,-7.07 -23.01,-16.8 -31.22,-29.22 -8.21,-12.41 -14.32,-27.12 -18.33,-44.11 -4.01,-16.99 -6.01,-35.42 -6.01,-55.28 0,-17.95 1.91,-34.47 5.73,-49.55 3.82,-15.08 9.74,-28.16 17.76,-39.24 8.02,-11.07 18.04,-19.67 30.07,-25.78 12.03,-6.11 26.26,-9.17 42.68,-9.17 18.33,0 33.99,6.4 46.97,19.29l0 -15.85 58.43 0 0 325.38 -58.43 37.23 0 -117.43c-6.49,5.35 -13.56,9.07 -21.2,11.17 -7.64,2.1 -14.7,3.15 -21.2,3.15z"/>
  <polygon class="fil0" points="435.54,354.96 455.98,321.08 515.36,380.46 "/>
  <polygon class="fil0" points="129.01,149.77 128.07,88.3 273.96,119.04 "/>
  <polygon class="fil0" points="423.91,148.12 424.37,101.24 312.93,124.71 "/>
  <path class="fil1" d="M1059.85 81.28l0 -24.27 -8.65 0 0 -4.94 23.17 0 0 4.94 -8.61 0 0 24.27 -5.91 0zm21.9 0l0 -29.2 8.86 0 5.23 19.92 5.17 -19.92 8.88 0 0 29.2 -5.47 0 -0.02 -22.99 -5.76 22.99 -5.68 0 -5.73 -22.99 -0.02 22.99 -5.47 0z"/>
  <polygon class="fil0" points="401.59,161.56 432.49,155.21 432.49,162.78 "/>
  <path class="fil0" d="M190.65 206.44c19.94,0 36.1,16.16 36.1,36.1 0,19.94 -16.16,36.1 -36.1,36.1 -0.6,0 -1.21,-0.02 -1.8,-0.04 5.2,-2.88 8.72,-8.43 8.72,-14.79 0,-9.34 -7.57,-16.9 -16.91,-16.9 -9.34,0 -16.9,7.57 -16.9,16.9 0,1.07 0.1,2.12 0.29,3.14 -5.9,-6.43 -9.5,-14.99 -9.5,-24.4 0,-19.94 16.16,-36.1 36.1,-36.1z"/>
  <path class="fil0" d="M299.46 206.44c19.94,0 36.1,16.16 36.1,36.1 0,19.94 -16.16,36.1 -36.1,36.1 -0.61,0 -1.21,-0.02 -1.8,-0.04 5.2,-2.88 8.72,-8.43 8.72,-14.79 0,-9.34 -7.57,-16.9 -16.9,-16.9 -9.34,0 -16.9,7.57 -16.9,16.9 0,1.07 0.1,2.12 0.29,3.14 -5.9,-6.43 -9.5,-14.99 -9.5,-24.4 0,-19.94 16.16,-36.1 36.1,-36.1z"/>
 </g>
</svg>
