<?xml version="1.0" encoding="UTF-8"?>
<!DOCTYPE svg PUBLIC "-//W3C//DTD SVG 1.1//EN" "http://www.w3.org/Graphics/SVG/1.1/DTD/svg11.dtd">
<!-- Creator: CorelDRAW 2019 (64-Bit) -->
<svg xmlns="http://www.w3.org/2000/svg" xml:space="preserve" width="685px" height="800px" version="1.1" style="shape-rendering:geometricPrecision; text-rendering:geometricPrecision; image-rendering:optimizeQuality; fill-rule:evenodd; clip-rule:evenodd"
viewBox="0 0 19.56 22.85"
 xmlns:xlink="http://www.w3.org/1999/xlink">
 <defs>
  <style type="text/css">
   <![CDATA[
    .fil0 {fill:#E51A4B}
   ]]>
  </style>
 </defs>
 <g id="Katman_x0020_1">
  <metadata id="CorelCorpID_0Corel-Layer"/>
  <path class="fil0" d="M9.39 16.43l0.69 0.01 0.02 4.26c0,0.39 0.12,1.09 -0.36,1.07 -0.47,-0.01 -0.36,-0.62 -0.36,-1.07l0.01 -4.27zm7.68 0.29c-0.31,0.07 -0.29,0.14 -0.34,0.45 -0.06,0.36 -0.26,0.24 -0.2,0.53 0.02,0.1 0.08,0.16 0.08,0.28 0.01,0.23 -0.07,0.12 -0.09,0.32 -0.01,0.17 0.04,0.13 0.05,0.31 0.03,0.43 -0.33,0.6 0.94,0.88 0.43,0.1 0.92,0.18 1.32,0 0.67,-0.29 0.97,-1.3 0.5,-2.09 -0.18,-0.3 -0.47,-0.52 -0.91,-0.6 -0.3,-0.05 -1.08,-0.14 -1.35,-0.08zm-15.12 0c-1.04,0.07 -1.67,0.2 -1.9,1.16 -0.23,0.95 0.38,1.74 1.26,1.72 0.38,-0.01 1.58,-0.16 1.7,-0.58 0.04,-0.13 0,-0.17 -0.01,-0.28 -0.02,-0.25 0.03,-0.2 0.04,-0.37 0.03,-0.35 -0.19,-0.09 -0.02,-0.6 0.12,-0.37 -0.1,-0.2 -0.17,-0.53 -0.09,-0.41 0.06,-0.58 -0.9,-0.52zm1.92 -3.87l4.54 0.97c0.87,0.21 0.61,0.06 1.37,0.44 0.68,-0.39 1.97,-0.56 2.88,-0.76l3.04 -0.65c-0.18,-1.03 -0.63,-1.27 -1.47,-1.63 -0.62,-0.27 -1.66,-0.59 -2.35,-0.73l0.21 2.09c-0.31,-0.04 -2.07,-0.81 -2.27,-0.83 -0.2,-0.02 -1.92,0.74 -2.34,0.83l0.21 -2.09c-0.68,0.13 -1.74,0.47 -2.35,0.73 -0.86,0.36 -1.3,0.59 -1.47,1.63zm5.04 -7.73c0.84,-0.16 1.58,-0.77 2.13,-1.32 0.2,-0.2 0.29,-0.41 0.47,-0.66 0.18,0.38 0.28,0.82 0.49,1.2 0.11,0.2 0.19,0.35 0.33,0.52 0.15,0.21 0.26,0.28 0.41,0.45 0.09,0.28 -1.03,4.25 -2.96,4.29 -1.71,0.04 -2.95,-3.3 -2.98,-4.28 0.71,-0.04 1.1,-0.23 1.54,-0.6 0.31,-0.25 0.55,-0.51 0.79,-0.82l0.25 -0.31c-0.04,0.52 -0.28,1.13 -0.47,1.53zm2.61 -5.12l-0.09 0c-0.29,0.23 -0.32,0.45 -0.49,0.61 -0.13,-0.03 -0.77,-0.49 -0.82,-0.53 -0.11,0.15 -0.02,0.3 0.01,0.49 -0.75,-0.01 -1.43,0.08 -2.06,0.35 -0.55,0.24 -1.18,0.68 -1.44,1.01 -0.86,1.07 -1.14,2.09 -0.55,3.69 -0.11,0.13 -0.18,0.09 -0.21,0.45 -0.01,0.22 0.01,0.44 0.07,0.63 0.06,0.16 0.17,0.33 0.24,0.47 0.13,0.21 0.15,0.24 0.48,0.23 0.17,0.6 0.77,1.53 1.11,1.88 1.3,1.35 2.68,1.43 3.95,0.01 0.4,-0.45 0.93,-1.16 1.14,-1.9 0.42,0.03 0.43,-0.13 0.59,-0.42 0.13,-0.25 0.22,-0.53 0.2,-0.85 -0.02,-0.55 -0.26,-0.24 -0.02,-0.71 0.49,-0.97 0.15,-2.49 -0.47,-3.3 -0.08,-0.1 -0.19,-0.18 -0.27,-0.27 -0.11,-0.13 -0.12,-0.16 -0.27,-0.25 0.08,-0.46 0.36,-0.64 0.42,-0.92 -0.48,0 -0.77,0.29 -1.12,0.39 -0.25,-0.28 -0.3,-0.66 -0.4,-1.06zm-1.78 22.85c0.67,0 0.69,-0.33 1.18,-0.44 0.31,-0.08 0.73,-0.11 1.06,-0.18 0.71,-0.14 1.42,-0.24 2.13,-0.37l3.18 -0.56c0.42,-0.13 0.31,-0.79 0.31,-0.8 0,-0.01 -0.01,-0.03 -0.01,-0.04 -0.06,-0.17 -1.08,-0.1 -1.62,-0.68 -0.67,-0.74 -0.51,-3.62 0.87,-3.93 0.38,-0.09 0.82,0.03 1.13,-0.03 0.03,-0.49 0.06,-0.97 0.1,-1.45 0.12,-1.48 -0.1,-1.1 -3.01,-0.48l-3.85 0.83c-0.58,0.14 -1.02,0.07 -1.13,0.62l-0.69 0.01c0,-0.21 -0.04,-0.36 -0.34,-0.47 -0.17,-0.06 -0.48,-0.11 -0.66,-0.15l-5.13 -1.11c-1.66,-0.33 -1.86,-0.66 -1.77,0.7 0.03,0.5 0.07,1 0.1,1.51 0.37,0.05 1.28,-0.19 1.8,0.37 0.62,0.67 0.81,2.87 0.22,3.55 -0.59,0.69 -1.61,0.47 -1.66,0.78 -0.02,0.14 0.01,0.64 0.3,0.75l5.3 0.94c0.31,0.06 0.78,0.11 1.07,0.19 0.46,0.13 0.46,0.44 1.12,0.44z"/>
 </g>
</svg>
