<?xml version="1.0" encoding="UTF-8"?>
<!DOCTYPE svg PUBLIC "-//W3C//DTD SVG 1.1//EN" "http://www.w3.org/Graphics/SVG/1.1/DTD/svg11.dtd">
<!-- Creator: CorelDRAW 2020 (64-Bit) -->
<svg xmlns="http://www.w3.org/2000/svg" xml:space="preserve" width="18.7564mm" height="30mm" version="1.1" style="shape-rendering:geometricPrecision; text-rendering:geometricPrecision; image-rendering:optimizeQuality; fill-rule:evenodd; clip-rule:evenodd"
viewBox="0 0 62.39 99.79"
 xmlns:xlink="http://www.w3.org/1999/xlink"
 xmlns:xodm="http://www.corel.com/coreldraw/odm/2003">
 <defs>
  <style type="text/css">
   <![CDATA[
    .fil0 {fill:white}
   ]]>
  </style>
 </defs>
 <g id="Layer_x0020_1">
  <metadata id="CorelCorpID_0Corel-Layer"/>
  <g id="_2310010372320">
   <path class="fil0" d="M21.28 50.34c-1.59,0 -1.18,-4.12 -3.94,-1.79 -1.33,1.12 -2.77,2.06 -4.53,2.56 -7.09,2.03 -12.81,7.01 -12.81,14.92 0,1.47 0.32,2.6 0.42,3.88 0.26,3.28 -0.03,21.24 0,26.44 0.02,3.72 1.43,2.78 9.47,2.78 0.52,0 1.29,-0.77 1.29,-1.29l0 -23.43c0,-1 -1.5,-1.04 -1.5,-2.36 0,-1.79 3.15,0.86 6.42,2.18 1.72,0.7 4.92,1.69 7.34,1.69 0.69,0 2.98,-2.13 3.87,-2.79 2.99,-2.23 2.58,-2.33 2.58,-7.09 0,-2.71 -1.51,-2.96 -3.5,-4.89l-3.26 -2.97c-0.43,-0.32 -0.98,-0.54 -0.98,-1.17 0,-2.26 4.98,1.29 6.23,1.29 0.58,0 0.59,-0.1 1.08,-0.22 0.82,-1.72 0.43,-9.67 0.43,-12.04 0,-2.7 -1.31,-2.87 -3.02,-3.86l-2.15 -1.29c-0.46,-0.28 -1.81,-1.21 -2.18,-1.25 -2,-0.16 -0.86,3.48 -0.82,5.1 0.07,2.87 1.07,5.59 -0.43,5.59z"/>
   <path class="fil0" d="M22.57 20.46c0,-2.61 3.65,-2.75 3.65,0 0,2.39 -3.65,2.24 -3.65,0zm-6.45 -3.22c-0.8,0.19 -1.55,0.8 -2.04,1.4 -2.36,2.92 0.15,7.65 1.66,8.86 0.85,0.68 1.85,0.71 2.44,1.64 0.85,1.33 0.51,2.61 3.03,5.13l4.61 3.56c0.83,0.56 4.04,3.48 4.04,-0.6 0,-4.09 0.32,-34.96 -0.25,-36.3 -1.13,-2.67 -7.53,0.89 -10.29,4.69 -2.23,3.07 -3.22,6.3 -3.22,11.61z"/>
   <path class="fil0" d="M20.64 81.73c-3.05,0 2.64,-3.1 -0.69,-3.83 -3.99,-0.87 -3.81,-1.79 -5.76,-1.33 -0.52,2.24 -0.21,17.35 -0.21,20.85 0,1.04 0.68,1.72 1.72,1.72l12.68 0c1.88,0 1.97,-5.22 0.86,-6.88 -1.34,0 -3.22,0.63 -6.15,-0.51 -0.83,-0.32 -2.66,-1.37 -2.66,-2.28 0,-2.05 1.78,0.64 6.88,0.64 1.71,0 2.58,-0.86 2.58,-2.58l0 -10.1c0,-2.92 -3.68,0.01 -5.28,1.17 -0.98,0.71 -3.53,3.13 -3.96,3.13z"/>
   <path class="fil0" d="M38.48 23.47c-2.66,0 -3.44,-1.32 -3.44,-4.08 0,-5.01 7.21,-5.34 6.76,0.11 -0.18,2.14 -1.73,3.98 -3.32,3.98zm-5.8 -22.36l0 27.73c0,1.4 2.14,1.08 3.01,1.08 3,0 2.93,-2.99 5.01,-4.02 5.71,-2.82 4.67,-1.97 4.67,-13.39 0,-3.56 -1.32,-7.1 -3.82,-9.3 -2.86,-2.52 -8.87,-4.39 -8.87,-2.1z"/>
   <path class="fil0" d="M57.19 72.49l0 11.18c0,1.28 -0.73,1.51 -1.34,2.1 -1.61,1.56 -2.07,4.78 1.12,4.78 0.86,0 0.68,-0.28 1.53,-0.41 0.6,-0.09 1.32,0.03 1.91,-0.02 1.55,-0.15 2.85,-2.05 0.91,-4.14 -0.53,-0.58 -1.13,-0.84 -1.13,-1.88l0 -17.41c0,-1.99 1.08,-1.57 1.08,-4.51 0,-4.29 -6.41,-3.79 -5.07,2.7 0.54,2.61 0.98,4.48 0.98,7.62z"/>
   <path class="fil0" d="M32.89 59.59l0 12.25c0,3.57 1.85,7.91 4.03,10.16 0.61,0.63 1.1,1.09 1.72,1.72 0.75,0.75 1.18,0.97 2.08,1.58 1.53,1.03 6.37,4.17 6.37,0.3 0,-2.08 -6.86,-1.36 -10.17,-9.82 -1.18,-3.01 -0.8,-10.24 -0.79,-14.26 0,-1.74 0.19,-3.65 -1.51,-3.65 -1.04,0 -1.72,0.68 -1.72,1.72z"/>
   <path class="fil0" d="M34.61 55.72c3.65,0 3.48,-5.98 12.54,-1.58 3.52,1.71 11.75,2.26 11.75,-1 0,-2.6 -3.75,-0.86 -4.94,-0.86 -7.44,0 -10.63,-6.11 -18.06,-0.86 -0.64,0.45 -1.74,1.25 -2.21,1.89 -0.7,0.95 -0.01,2.41 0.92,2.41z"/>
   <path class="fil0" d="M32.68 34c0,5.36 -0.48,5.59 1.5,5.59 3.54,0 6.73,-4.34 8.43,-7.05 1.33,-2.13 3.38,-4.99 0.39,-4.99 -0.72,0 -1.77,1.39 -2.18,1.9l-1.95 2.35c-1.65,1.39 -6.19,-0.83 -6.19,2.19z"/>
   <path class="fil0" d="M43.86 74.21c-3.02,0 -2.8,-0.43 -3.65,-0.43 -1.61,0 -2.92,3.23 1.52,3.64 3.3,0.31 2.75,-0.27 4.5,-0.42 0,2.95 -1.72,2.29 -1.72,4.08 0,1.98 2.12,2.03 3.14,0.78 2.95,-3.6 1.45,-5.83 1.44,-7.48 -0.01,-1.13 0.58,-0.3 0.58,-2.55 0,-1.11 -1.97,-1.95 -3.01,-0.22 -0.33,0.55 -0.47,1.16 -0.91,1.67 -0.37,0.42 -1.16,0.91 -1.88,0.91z"/>
   <path class="fil0" d="M32.89 86.03l0 12.04c0,2.3 3.22,2.28 3.22,0l0 -12.47c0,-1.52 -3.22,-2.09 -3.22,0.43z"/>
   <path class="fil0" d="M41.92 67.11l-2.8 -0.22c-1.85,0.09 -2.74,3.45 1.51,3.45 3.5,0 6.07,-0.73 7.89,-4.15 1.22,-2.29 1.3,-4.8 -0.93,-4.37 -1.13,0.22 -1.21,1.19 -1.59,2.07 -0.71,1.63 -1.76,3.23 -4.08,3.23z"/>
   <path class="fil0" d="M37.62 61.52c0,1.79 0.82,1.93 2.58,1.93 6.88,0 9.32,-7.74 6.02,-7.74 -2.68,0 -0.89,4.44 -6.24,4.51 -0.46,0.01 -2.36,-0.1 -2.36,1.29z"/>
   <path class="fil0" d="M58.91 93.98c0,1.87 -0.47,5.59 1.72,5.59 2.19,0 1.72,-3.72 1.72,-5.59 0,-2.94 -3.44,-2.94 -3.44,0z"/>
   <path class="fil0" d="M53.96 94.41c0,1.4 -0.45,6.13 2.34,4.94 1.44,-0.61 0.88,-2.69 0.88,-3.87 0,-1.03 0.34,-0.89 0.03,-1.73 -0.2,-0.52 -0.48,-0.93 -1.06,-1.12 -1,-0.34 -2.19,0.5 -2.19,1.78z"/>
   <path class="fil0" d="M32.89 48.62c0,0.72 0.57,1.51 1.72,1.51 0.89,0 3.22,-1.39 3.22,-2.36 0,-3.4 -4.94,-0.99 -4.94,0.86z"/>
   <path class="fil0" d="M33.97 45.4c0.81,0 3.44,-1.19 3.44,-2.58 0,-0.93 -0.56,-1.49 -1.37,-1.63 -0.77,-0.14 -3.43,1.24 -3.51,2.52 -0.04,0.69 0.72,1.69 1.44,1.69z"/>
   <path class="fil0" d="M54.39 59.37c0,-1.12 -2.37,-3.01 -3.32,0.33 -0.32,1.13 -0.86,1.86 0.03,2.75 0.71,0.71 1.78,0.63 2.38,-0.12 0.39,-0.48 0.91,-2.1 0.91,-2.96z"/>
   <path class="fil0" d="M37.41 88.18c0,1.5 3.22,2.76 3.22,-0.43 0,-1.6 -3.22,-1.82 -3.22,0.43z"/>
   <path class="fil0" d="M37.41 92.91c0,2.06 3.22,2.65 3.22,-0.22 0,-1.58 -3.22,-1.81 -3.22,0.22z"/>
   <path class="fil0" d="M37.41 98.07c0,1.59 3.22,2.69 3.22,-0.43 0,-1.73 -3.22,-1.62 -3.22,0.43z"/>
  </g>
 </g>
</svg>
