<?xml version="1.0" encoding="UTF-8"?>
<!DOCTYPE svg PUBLIC "-//W3C//DTD SVG 1.1//EN" "http://www.w3.org/Graphics/SVG/1.1/DTD/svg11.dtd">
<!-- Creator: CorelDRAW 2020 (64-Bit) -->
<svg xmlns="http://www.w3.org/2000/svg" xml:space="preserve" width="20.939mm" height="30mm" version="1.1" style="shape-rendering:geometricPrecision; text-rendering:geometricPrecision; image-rendering:optimizeQuality; fill-rule:evenodd; clip-rule:evenodd"
viewBox="0 0 94.4 135.24"
 xmlns:xlink="http://www.w3.org/1999/xlink"
 xmlns:xodm="http://www.corel.com/coreldraw/odm/2003">
 <defs>
  <style type="text/css">
   <![CDATA[
    .fil0 {fill:white}
   ]]>
  </style>
 </defs>
 <g id="Layer_x0020_1">
  <metadata id="CorelCorpID_0Corel-Layer"/>
  <path class="fil0" d="M77.99 16.7l0.02 2.1 3.22 0.16 0.08 4.22c-1.28,0 -2.46,-0.17 -3.31,0.44l-0.05 1.78 3.3 0.19c0.18,0.83 -0.04,3.33 -0.08,4.36l-3.33 0.16 0.17 1.95 3.23 0.16c0.19,0.81 -0.03,3.27 -0.07,4.26 -0.85,0.35 -2.21,0.22 -3.18,0.39 0,0.31 -0.02,0.65 -0.01,0.95l0.17 0.82 3.08 0.2 0.08 4.47 -3.32 0.16 0 1.8 3.18 0.32 0.16 4.34 -3.34 0.16 0 1.8 3.15 0.3 0.18 4.36 -3.34 0.16 -0.06 1.91c0.45,0.12 1.04,0.14 1.55,0.16 0.27,0.01 0.57,-0 0.84,0.01l0.81 0.2 0.2 4.19 -3.35 0.16 -0.06 1.8c0.78,0.6 2.18,0.44 3.34,0.44l0.04 4.22 -3.31 0.16 0 2.07 3.25 0.2 0.07 9.78 -9.01 0 0.12 -61.59c0.02,-4.03 -0.05,-8.27 0.21,-12.27 0.12,-1.81 0.88,-3.21 2.44,-3.6 0.79,-0.2 1.92,-0.11 2.75,-0.01 1.11,0.14 1.62,0.21 2.18,0.99 1.05,1.47 1.11,2.88 1.19,5.01 0.07,1.89 0.23,4.11 0.17,5.96l-3.37 0.19zm-32.12 4.89c-0.25,1.09 -0.07,17.59 -0.07,20.22 0,2.54 -0.06,2.26 0.83,4.29l16.9 38.28c0.17,-2.62 0.12,-6.68 -0.05,-9.31 -0.13,-2.05 -1.75,-5.13 -2.56,-6.97l-8.64 -19.92c-1.8,-4.23 -1.98,-3.45 -1.98,-7.61 0,-1.52 0.1,-17.94 -0.04,-18.97l-4.39 -0.01zm-21 -11.56c-1.86,0.09 -3.03,0.22 -3.84,1.35 -0.77,1.07 -0.82,2.99 -0.55,4.43 0.6,3.25 4.31,2.68 7.52,2.71 6.57,0.06 13.92,0.29 20.42,-0.08 1.9,-0.11 2.78,-0.16 3.6,-1.45 0.7,-1.09 0.83,-2.76 0.49,-4.23 -0.72,-3.14 -4.06,-2.74 -7.4,-2.8 -6.5,-0.12 -13.8,-0.23 -20.24,0.07zm-2.29 15.09c0.01,5.38 0.12,10.77 0.21,16.15 0.05,3.03 -0.5,3.02 -1.86,6.31 -0.81,1.96 -1.66,3.82 -2.52,5.76 -3.37,7.61 -6.58,15.26 -9.93,22.92 -1.66,3.79 -3.26,7.6 -4.88,11.4 -1.54,3.6 -3.64,8.29 -3.59,12.82 0.06,4.97 3.03,8.25 7.46,8.93 4.49,0.69 11.26,0.43 15.98,0.43l32.43 0c0.36,-0.09 2.23,-3.84 2.15,-4.31 -5.55,-0.28 -11.47,-0.22 -17.05,-0.22 -5.75,0 -11.51,-0.02 -17.25,-0.06 -2.85,-0.02 -5.71,-0.01 -8.56,-0.03 -3.32,-0.02 -5.22,0.38 -7.69,-0.93 -4.52,-2.38 -3.21,-8 -1.25,-12.49 5.18,-11.83 10.47,-24.28 15.78,-35.98 0.68,-1.49 5.23,-11.45 5.23,-12.22l0 -22.01 -3.67 0.03c-1.25,0.06 -1,-0.13 -0.99,3.49zm14.33 67.75c4.46,-1.53 6.56,4.74 2.53,6.34 -2.12,0.84 -3.85,-0.63 -4.42,-2.03 -0.58,-1.43 -0.09,-3.63 1.89,-4.3zm4.37 -12.32c3,-0.61 5.48,1.58 5.95,4.01 0.59,3.06 -1.52,5.57 -3.95,6.05 -6.69,1.32 -8.77,-8.68 -1.99,-10.06zm-10.69 -17.83c4.54,-0.68 8.04,2.7 8.61,6.54 0.65,4.41 -2.68,8.2 -6.4,8.68 -10.29,1.32 -12.3,-13.71 -2.21,-15.22zm-12.84 10.82c-0.34,1.17 -4.22,9.84 -4.99,11.55 -1.5,3.32 -4.34,8.62 -4.53,11.93 -0.19,3.27 0.9,4.14 3.1,5.23 1.54,0.76 1.67,0.57 3.56,0.57l45.12 -0.01c0.62,-0.1 1.75,-1.4 2.3,-1.84 1.24,-0.99 1.21,-0.76 1.2,-2.85 -0,-1.38 0,-2.76 0.02,-4.14 0.02,-1.99 -0.16,-1.79 -0.87,-3.33 -1.14,-2.49 -6.93,-15.41 -7.43,-17.11l-13.81 -0.03c-0.2,-4.59 0.57,-6.33 -2.09,-9.5 -4.32,-5.14 -11.93,-4.82 -15.57,0.06 -2.77,3.72 -1.61,4.57 -1.97,9.46l-4.05 0zm50.31 28.45c-0.47,0.77 -4.61,2.49 -7.11,7.82 -3.59,7.64 -1.57,16.47 4.73,21.58 2.96,2.4 5.99,3.79 11.04,3.85 4.67,0.06 8.63,-1.54 11.03,-3.87 2.66,-2.57 4.93,-4.72 6.03,-8.88 1.17,-4.41 0.59,-8.84 -1.13,-12.58 -1.08,-2.35 -4.91,-6.69 -7.12,-7.75 0.07,-27.63 -0.07,-55.34 -0.11,-82.98 -0,-1.96 0.22,-12.75 -0.17,-13.65 -0.7,-1.65 -1.92,-2.99 -3.04,-3.85 -1.31,-1.01 -3.29,-1.65 -5.36,-1.67 -4.61,-0.04 -6.91,2.27 -8.37,5.43 -0.75,1.62 -0.44,4.5 -0.44,6.43l0 90.12z"/>
 </g>
</svg>
