<?xml version="1.0" encoding="UTF-8"?>
<!DOCTYPE svg PUBLIC "-//W3C//DTD SVG 1.1//EN" "http://www.w3.org/Graphics/SVG/1.1/DTD/svg11.dtd">
<!-- Creator: CorelDRAW 2017 -->
<svg xmlns="http://www.w3.org/2000/svg" xml:space="preserve" width="50px" height="44px" version="1.1" style="shape-rendering:geometricPrecision; text-rendering:geometricPrecision; image-rendering:optimizeQuality; fill-rule:evenodd; clip-rule:evenodd"
viewBox="0 0 1.69 1.49"
 xmlns:xlink="http://www.w3.org/1999/xlink">
 <defs>
  <style type="text/css">
   <![CDATA[
    .fil0 {fill:white}
   ]]>
  </style>
 </defs>
 <g id="Katman_x0020_1">
  <metadata id="CorelCorpID_0Corel-Layer"/>
  <path class="fil0" d="M0.26 1.36c-0.05,0 -0.09,-0.01 -0.11,0.02 -0.03,0.02 -0.02,0.06 -0.02,0.11l0.4 0c0,-0.01 0,-0.02 0,-0.03l0 -0.1 -0.08 0 0 -0.78 -0.19 0 0 0.78zm0.89 0.13l0.41 0c0,-0.05 0.01,-0.09 -0.02,-0.11 -0.03,-0.03 -0.07,-0.02 -0.11,-0.02l0 -0.78 -0.2 0 0 0.78 -0.07 0 0 0.1c0,0.01 0,0.02 -0.01,0.03zm-0.05 -0.39l0 -0.52 -0.19 0 0 0.07c0.07,0.02 0.12,0.09 0.12,0.17 0,0.07 -0.03,0.13 -0.08,0.16 0.06,0.02 0.12,0.07 0.15,0.12zm-0.32 -0.45l0 -0.07 -0.2 0 0 0.52c0.04,-0.05 0.1,-0.1 0.16,-0.12 -0.05,-0.03 -0.09,-0.09 -0.09,-0.16 0,-0.08 0.06,-0.15 0.13,-0.17zm-0.78 -0.27l0 0.07 0.13 0c0,0.04 0.03,0.07 0.06,0.07l1.31 0c0.03,0 0.06,-0.03 0.06,-0.07l0.13 0 0 -0.07c-0.02,0 -0.14,-0.06 -0.16,-0.07 -0.01,0 -0.02,0 -0.03,-0.01l-0.36 -0.17c-0.01,0 -0.02,-0.01 -0.03,-0.01l-0.18 -0.09c-0.1,-0.04 -0.06,-0.05 -0.19,0.01l-0.08 0.04c-0.01,0 -0.02,0.01 -0.03,0.01l-0.63 0.29zm0.84 0.63l0 0c0.15,0 0.27,0.12 0.27,0.27l0 0.18c0,0.02 -0.01,0.03 -0.03,0.03l-0.48 0c-0.01,0 -0.03,-0.01 -0.03,-0.03l0 -0.18c0,-0.15 0.13,-0.27 0.27,-0.27zm0 -0.33c0.08,0 0.15,0.06 0.15,0.14 0,0.08 -0.07,0.15 -0.15,0.15 -0.08,0 -0.14,-0.07 -0.14,-0.15 0,-0.08 0.06,-0.14 0.14,-0.14z"/>
 </g>
</svg>
